<?xml version="1.0" encoding="UTF-8" standalone="no"?>
<!-- Created with Inkscape (http://www.inkscape.org/) -->

<svg
   xmlns:dc="http://purl.org/dc/elements/1.1/"
   xmlns:cc="http://creativecommons.org/ns#"
   xmlns:rdf="http://www.w3.org/1999/02/22-rdf-syntax-ns#"
   xmlns:svg="http://www.w3.org/2000/svg"
   xmlns="http://www.w3.org/2000/svg"
   xmlns:xlink="http://www.w3.org/1999/xlink"
   xmlns:sodipodi="http://sodipodi.sourceforge.net/DTD/sodipodi-0.dtd"
   xmlns:inkscape="http://www.inkscape.org/namespaces/inkscape"
   width="110.79012mm"
   height="110.79012mm"
   viewBox="0 0 110.79012 110.79012"
   version="1.1"
   id="svg892"
   inkscape:version="0.92.3 (2405546, 2018-03-11)"
   sodipodi:docname="icon.svg">
  <defs
     id="defs886">
    <linearGradient
       gradientUnits="userSpaceOnUse"
       gradientTransform="matrix(0.0674125,0,0,0.25099305,65.539448,90.160003)"
       id="linearGradient867"
       x1="11.618212"
       x2="126.35713"
       xlink:href="#linearGradient863"
       y1="32.204288"
       y2="22.984196" />
    <linearGradient
       id="linearGradient863">
      <stop
         id="stop864"
         offset="0.0000000"
         style="stop-color:#ffffff;stop-opacity:0.50000000;" />
      <stop
         id="stop865"
         offset="1.0000000"
         style="stop-color:#ffffff;stop-opacity:0.0000000;" />
    </linearGradient>
    <linearGradient
       gradientUnits="userSpaceOnUse"
       gradientTransform="matrix(0.12191924,0,0,0.13878096,65.539448,90.160003)"
       id="linearGradient866"
       x1="96.035797"
       x2="131.36186"
       xlink:href="#linearGradient863"
       y1="118.15443"
       y2="81.389526" />
  </defs>
  <sodipodi:namedview
     id="base"
     pagecolor="#ffffff"
     bordercolor="#666666"
     borderopacity="1.0"
     inkscape:pageopacity="0.0"
     inkscape:pageshadow="2"
     inkscape:zoom="0.9899495"
     inkscape:cx="178.55831"
     inkscape:cy="144.22599"
     inkscape:document-units="mm"
     inkscape:current-layer="layer1"
     showgrid="false"
     fit-margin-top="0"
     fit-margin-left="0"
     fit-margin-right="0"
     fit-margin-bottom="0" />
  <metadata
     id="metadata889">
    <rdf:RDF>
      <cc:Work
         rdf:about="">
        <dc:format>image/svg+xml</dc:format>
        <dc:type
           rdf:resource="http://purl.org/dc/dcmitype/StillImage" />
        <dc:title></dc:title>
      </cc:Work>
    </rdf:RDF>
  </metadata>
  <g
     inkscape:label="Layer 1"
     inkscape:groupmode="layer"
     id="layer1"
     transform="translate(68.282302,-95.585282)">
    <g
       id="g909"
       transform="translate(9.0663343e-7,-10.63454)">
      <path
         style="stroke-width:0.26458332"
         inkscape:connector-curvature="0"
         id="path3"
         d="m -13.615689,130.98032 c 1.819275,0.4318 1.108868,2.26324 2.980531,1.92299 1.7134414,-0.31168 3.5644664,-0.11033 5.056981,-0.30771 0.8104187,-0.10716 1.5533687,-0.77655 2.3841603,-0.76914 1.0154709,0.009 1.5263813,0.60721 2.3846896,0.73051 2.4497771,0.3519 5.1434999,0.51885 7.6909082,0.92287 2.2537208,0.35745 5.0019479,0.26035 7.1146459,0.80751 2.274358,0.58922 4.244975,2.31272 6.306873,3.38428 4.89532,2.54423 10.208948,4.40346 15.344245,6.49923 1.609725,0.65696 5.036344,1.4605 6.229879,2.65324 1.000919,1.00039 0.829998,0.59134 -0.65405,0.84614 -1.484577,0.25505 -3.736974,-0.17542 -5.307012,-0.26935 -2.58101,-0.15425 -5.578475,-0.74242 -7.576079,-0.4998 3.582458,4.41616 7.562585,8.44709 10.499196,13.57524 0.560652,0.97923 2.833158,4.17804 2.69187,5.19166 -0.178858,1.28111 -2.776537,1.81583 -3.961341,2.30743 -1.849702,0.76755 -3.755231,1.32847 -5.633773,2.01903 -1.477169,0.54319 -2.960423,0.99298 -4.40346,1.6346 -1.53723,0.68315 -0.979488,1.66 -0.961232,3.11467 0.0471,3.73857 0.153988,7.47395 0.153988,11.22919 0,3.7965 0.02646,4.14972 -3.230563,5.80707 -9.046368,4.60375 -19.3198743,7.28848 -28.1887076,12.22931 -1.8229791,1.01547 -3.3136416,2.70192 -5.3070124,2.30743 -1.345671,-0.26644 -2.527565,-1.7661 -3.865033,-2.21139 -7.487179,-2.49396 -14.737292,-7.43929 -21.631804,-11.2485 -3.246702,-1.79361 -6.44869,-3.69358 -9.6139,-5.65282 -2.913327,-1.8034 -3.037152,-1.61501 -3.230563,-5.03793 -0.270139,-4.77917 0.02514,-9.80652 -0.692149,-14.45974 -0.338932,-2.19869 -0.7366,-2.46089 -2.903538,-3.46102 -1.831446,-0.84534 -3.635639,-1.87431 -5.403056,-2.80723 -2.277533,-1.202 -4.578879,-2.61725 -6.768306,-3.92271 -0.512498,-0.30559 -3.9624,-1.60761 -4.1148,-1.96136 -1.256771,-2.91676 18.231643,-13.67869 20.612893,-16.4211 -3.283479,-0.72469 -7.254081,-0.6342 -10.614025,-0.69215 -3.715543,-0.064 -1.833827,-0.7485 0.961496,-0.99986 2.15609,-0.19367 4.807744,-0.31802 6.768306,-0.42306 3.400954,-0.1823 7.442465,-0.9615 11.190817,-0.9615 1.512887,0 3.656806,-0.041 5.037931,-1.03849 2.110052,-1.52426 2.714625,-3.79862 5.826125,-1.88436 2.63869,1.62322 3.970867,2.18069 5.864754,0.23071 1.288256,-1.32635 0.565679,-2.05369 2.961217,-2.46115 1.948921,-0.33126 4.203435,0.0402 5.998898,0.0773" />
      <path
         inkscape:connector-curvature="0"
         style="fill:#bfbfbf;stroke-width:0.26458332"
         id="path5"
         d="m -18.884073,131.82646 c 1.704975,0.1434 4.069556,-0.48419 5.691717,0.65378 -2.34606,0.32808 -4.926277,0.60987 -7.15301,-0.3847 0.469635,-0.14367 1.052777,-0.24845 1.461293,-0.26908" />
      <path
         inkscape:connector-curvature="0"
         style="fill:#e3e3e3;stroke-width:0.26458332"
         id="path7"
         d="m 3.1512208,142.55584 c -0.3018896,2.46618 -4.2754021,-2.85168 -4.7302208,-3.65337 -1.0371667,-1.82906 -1.3252979,-3.86186 -1.6533812,-6.19151 3.82031867,-0.3347 6.3756645,7.20698 6.383602,9.84488" />
      <path
         inkscape:connector-curvature="0"
         style="fill:#bfbfbf;stroke-width:0.26458332"
         id="path13"
         d="m -26.652504,135.40256 c 1.313127,0.52917 2.329656,1.58459 3.076575,2.76887 -2.468562,0.25321 -5.388504,-3.35492 -7.383727,-4.69159 1.599936,0.254 3.214952,0.83714 4.307152,1.92272" />
      <path
         inkscape:connector-curvature="0"
         style="fill:#dac8b8;stroke-width:0.26458332"
         id="path15"
         d="m -7.9242374,133.67219 c -1.1411479,0.72919 -2.4389296,1.14353 -3.5763726,1.88463 -1.145646,-2.20451 2.7484913,-2.17991 3.5763726,-1.88463" />
      <path
         inkscape:connector-curvature="0"
         style="fill:#e2d3c7;stroke-width:0.26458332"
         id="path17"
         d="m 5.9973436,134.32624 c 4.3640374,0.14764 7.9779814,1.00727 11.8827024,2.96095 2.221441,1.11178 4.220104,2.19419 6.345502,3.11494 4.905904,2.12487 9.91817,4.33149 14.844183,6.26851 -1.808427,-0.54134 -4.909344,-0.50006 -6.922029,-0.50006 -3.636963,0 -6.468269,-1.0287 -9.748838,-2.51884 -2.619639,-1.18983 -5.54355,-3.15383 -8.364008,-4.48019 -3.878792,-1.8235 -7.9877707,-3.35438 -11.7292436,-5.57635 1.2490979,-0.0611 2.5868313,0.5715 3.6917312,0.73104" />
      <path
         inkscape:connector-curvature="0"
         style="fill:#aa8363;stroke-width:0.26458332"
         id="path19"
         d="m 4.7667666,135.90289 c 6.6312524,3.45625 14.1306014,5.85391 20.3819124,10.26795 -2.91809,0.72337 -5.762096,1.88569 -8.537575,2.57678 0.05371,-3.29433 -1.386946,-6.83631 -5.249333,-7.1337 -1.7941399,-0.13811 -3.4750378,0.42175 -5.2493336,0.2884 -2.0290896,-0.1524 -1.8044583,0.13176 -2.5190979,-2.11508 -0.6865937,-2.15979 -1.6020521,-4.25582 -3.1345187,-5.96053 1.4874875,0.48418 3.0517041,1.49727 4.3079458,2.07618" />
      <path
         inkscape:connector-curvature="0"
         style="fill:#dac8b8;stroke-width:0.26458332"
         id="path23"
         d="m -22.960773,135.67217 c -0.0074,0.38497 -0.01111,0.67072 -0.230716,0.99987 -0.294746,-0.29502 -0.589757,-0.58976 -0.884502,-0.88477 0.392906,-0.2966 0.677068,-0.19606 1.115218,-0.1151" />
      <path
         inkscape:connector-curvature="0"
         style="fill:#c2a58c;stroke-width:0.26458332"
         id="path25"
         d="m -36.035952,136.51831 c -3.057525,0.5924 -6.19072,0.83291 -9.383183,1.36499 -3.191404,0.53207 -6.7183,-0.2749 -9.729523,0.28839 6.439694,-1.36895 13.39559,-0.20902 19.112706,-1.65338" />
      <path
         inkscape:connector-curvature="0"
         style="fill:#dac8b8;stroke-width:0.26458332"
         id="path27"
         d="m -37.035547,138.13333 c 0.789516,0.17753 -0.856721,1.95395 -1.461294,2.63446 -1.145117,1.28878 -4.668308,-0.36989 -5.922169,-1.6346 2.097881,-0.72734 5.341144,-0.87948 7.383463,-0.99986" />
      <path
         inkscape:connector-curvature="0"
         style="fill:#d0b9a5;stroke-width:0.26458332"
         id="path31"
         d="m -42.073479,141.7097 c 2.923382,2.50137 7.630054,3.59569 11.113823,5.0763 5.708915,2.42596 11.741679,5.89835 17.863079,7.9412 2.352146,0.78476 2.720181,1.17634 0.865188,2.86517 -1.97485,1.79758 -4.233069,3.36339 -6.325923,5.03794 -3.317082,2.65377 -6.429904,5.60361 -9.710209,8.30685 -1.674018,1.37954 -3.133724,3.66131 -5.191654,3.11468 -1.267883,-0.33655 -2.830247,-2.00501 -3.999441,-2.69214 -1.789642,-1.05172 -3.674269,-1.97405 -5.461,-2.99931 -2.355321,-1.35176 -4.670425,-2.70061 -7.037388,-3.99944 -5.567891,-3.05568 -12.07426,-5.715 -17.151879,-9.57554 3.808413,-4.53099 10.136717,-7.33584 14.805554,-10.9601 1.211263,-0.94006 4.236244,-4.15475 5.691717,-4.30715 1.264708,-0.13309 3.309673,1.78011 4.538133,2.19154" />
      <path
         inkscape:connector-curvature="0"
         style="fill:#bfffde;stroke-width:0.26458332"
         id="path37"
         d="m 2.690052,146.2862 c 0.8331729,0.7067 1.4721417,1.6256 1.9997208,2.57651 -1.4343062,-0.73924 -2.4087666,-2.02776 -3.3459208,-3.30729 0.4754563,0.16775 0.9323917,0.42307 1.3462,0.73078" />
      <path
         inkscape:connector-curvature="0"
         style="fill:#e2d3c7;stroke-width:0.26458332"
         id="path41"
         d="m 31.532545,151.43922 c 3.311261,4.57968 6.233584,9.45515 9.152467,14.34413 -10.092796,3.96769 -20.062825,7.36547 -30.361466,10.53729 -1.7729732,0.5461 -3.8015336,2.05184 -5.3257982,1.03849 -1.6898937,-1.12342 -3.0128104,-5.65944 -4.07669992,-7.42262 -2.64742078,-4.38706 -6.64818538,-8.66854 -8.69129778,-13.3059 6.6148478,-1.63882 13.2587998,-3.31602 19.7281269,-5.384 3.70496,-1.18428 7.516283,-1.85103 11.26781,-3.19167 4.562475,-1.63036 4.371181,-0.31433 8.306858,3.38428" />
      <path
         inkscape:connector-curvature="0"
         style="fill:#bfbfbf;stroke-width:0.26458332"
         id="path43"
         d="m -8.4240353,147.63214 c 0.8789458,-0.0304 1.7592145,0.0545 2.6151416,0.26908 -2.3291271,1.72164 -7.1561853,2.31642 -9.8832453,1.46155 2.096558,-1.36419 4.805097,-1.8997 7.2681037,-1.73063" />
      <path
         inkscape:connector-curvature="0"
         style="fill:#c2a58c;stroke-width:0.26458332"
         id="path47"
         d="m -9.5392541,157.13068 c 0.8360833,11.87317 -0.5458349,23.7826 0.2696104,35.59175 0.2100792,3.04032 0.3048,6.12325 0.4614334,9.09505 0.051329,0.97552 0.1830916,1.48299 -0.076994,2.34553 -0.063765,0.2114 0.5117042,0.70829 0.2309813,0.96176 -0.9313334,0.84137 -1.8288,-0.33258 -2.692135,-0.76941 -1.758686,-0.89006 -3.482181,-1.71953 -5.249598,-2.55693 -9.009592,-4.26905 -17.763596,-8.99292 -26.131308,-14.09462 -1.100667,-0.67098 -3.391958,-1.63433 -4.1148,-2.61514 -0.884238,-1.20015 -0.640821,-2.83395 -0.730779,-4.30689 -0.203729,-3.33719 -0.151871,-6.5913 -0.346075,-9.72952 -0.07699,-1.2446 -0.05794,-2.8067 -0.269346,-4.07644 -0.127794,-0.76941 5.087144,2.52148 5.78776,2.76913 1.903148,0.67231 3.916627,2.18625 5.730082,3.15357 1.179777,0.62918 2.148416,2.28574 3.480593,2.61488 2.794265,0.69056 9.405144,-7.08025 12.075319,-9.38319 3.493294,-3.01334 7.413096,-7.17735 11.5752557,-8.99953" />
      <path
         inkscape:connector-curvature="0"
         style="fill:#dac8b8;stroke-width:0.26458332"
         id="path49"
         d="m -2.6169604,165.8606 c 1.9139958,3.53722 4.1753895,6.85615 6.037527,10.42168 1.2578291,2.40823 1.1869208,3.54965 3.8647687,2.40347 5.5231767,-2.36432 12.5153207,-5.00777 18.3628767,-6.13383 0.04127,3.52239 0.3429,7.10406 0.346604,10.38304 0.0019,1.65074 0.58129,5.52873 -0.423068,6.8453 -0.744273,0.97578 -4.261909,2.31881 -5.576623,2.78818 -3.698875,1.32133 -7.435056,2.74849 -11.0368293,4.32673 -4.2632312,1.86796 -8.49868115,3.80656 -12.729104,5.72955 -1.2266083,0.55748 -2.4508354,1.12263 -3.6536312,1.73038 -0.7516813,-6.87547 -1.4313958,-14.46795 -1.0765896,-21.11243 0.4389438,-8.22325 0.9350375,-17.02858 0.076994,-25.49684 2.4603603,2.26457 3.634052,5.75945 5.8070749,8.11477" />
      <g
         style="stroke-width:0.49163026"
         transform="matrix(2.0346662,0,0,2.0334319,-201.6332,-77.114445)"
         id="g1802">
        <path
           inkscape:connector-curvature="0"
           style="opacity:0.66000001;fill:#eaffff;fill-rule:evenodd;stroke:none;stroke-width:0.32519293;stroke-linejoin:round;stroke-dasharray:none"
           sodipodi:nodetypes="ccccc"
           id="path855"
           d="m 99.484206,110.33539 c -2.408645,4.82315 -8.082685,5.8881 -13.690382,4.31345 -5.50564,-2.44213 -8.309041,-8.33859 -6.25759,-13.16174 2.153506,-3.853619 7.776518,-5.63296 13.588327,-3.752138 5.50564,2.442128 8.411099,7.777278 6.359645,12.600428 z" />
        <path
           inkscape:connector-curvature="0"
           style="fill:#7f7f7f;fill-rule:evenodd;stroke:#000000;stroke-width:0.32519293;stroke-linejoin:bevel;stroke-dasharray:none"
           sodipodi:nodetypes="ccccc"
           id="path857"
           d="m 96.574611,113.73766 c 6.092479,-4.14945 4.163509,-11.94374 -0.360082,-15.814674 -6.123189,-4.987624 -14.367488,-1.263969 -16.977862,3.408754 5.114876,-8.025049 14.278204,-3.275231 16.122562,-1.442419 2.248505,2.016629 6.430191,9.587029 1.215382,13.848339 z" />
        <path
           inkscape:connector-curvature="0"
           style="fill:#bfbfbf;fill-rule:evenodd;stroke:#000000;stroke-width:0.32519293;stroke-linejoin:bevel;stroke-dasharray:none"
           sodipodi:nodetypes="ccccc"
           id="path856"
           d="m 81.468703,98.769402 c -5.951949,3.929338 -4.713164,11.789628 1.043767,16.084908 6.398039,4.54248 10.391789,1.21836 14.239514,-1.23747 -6.132313,3.86794 -10.488281,1.19681 -12.832988,0.0303 -3.186398,-1.78048 -7.680794,-8.92233 -2.450293,-14.877728 z" />
        <path
           inkscape:connector-curvature="0"
           style="fill:url(#linearGradient867);fill-opacity:1;fill-rule:evenodd;stroke:none;stroke-width:0.13007716pt;stroke-linecap:butt;stroke-linejoin:miter;stroke-opacity:1"
           sodipodi:nodetypes="ccc"
           id="path858"
           d="m 79.359495,101.27936 c -3.061671,3.87811 -0.816446,9.03193 1.530836,11.58332 0.918501,-1.837 -5.255869,-5.8682 -1.530836,-11.58332 z" />
        <path
           inkscape:connector-curvature="0"
           style="opacity:0.66000001;fill:#ffffff;fill-opacity:1;fill-rule:evenodd;stroke:none;stroke-width:0.13007716pt;stroke-linecap:butt;stroke-linejoin:miter;stroke-opacity:1"
           sodipodi:nodetypes="ccc"
           id="path859"
           d="m 86.884044,97.301732 c -6.174371,-0.102056 -10.652849,7.331848 -3.968199,14.832938 7.501095,-2.55139 -5.57401,-12.638741 3.968199,-14.832938 z" />
        <path
           inkscape:connector-curvature="0"
           style="fill:#442400;fill-opacity:1;fill-rule:evenodd;stroke:#000000;stroke-width:0.32519293;stroke-linecap:butt;stroke-linejoin:round;stroke-dasharray:none;stroke-opacity:1"
           sodipodi:nodetypes="ccccc"
           id="path860"
           d="m 95.097688,115.04414 c 3.895216,3.49226 8.193382,13.49893 10.879742,14.57348 2.14908,0.40295 3.62658,-0.87307 3.69374,-3.29079 -0.40296,-3.02215 -10.140995,-9.8052 -12.424398,-12.82735 -0.470112,0.0672 -1.880448,0.94023 -2.149084,1.54466 z" />
        <path
           inkscape:connector-curvature="0"
           style="fill:url(#linearGradient866);fill-opacity:1;fill-rule:evenodd;stroke:none;stroke-width:0.13007716pt;stroke-linecap:butt;stroke-linejoin:miter;stroke-opacity:1"
           sodipodi:nodetypes="cccc"
           id="path862"
           d="m 96.767474,116.26218 c 2.672088,3.48644 7.806686,12.72556 8.983026,12.76938 0.13432,-0.67159 1.03283,-1.49587 2.24169,-2.03314 -3.89521,-3.35795 -5.13448,-2.50114 -11.224716,-10.73624 z" />
        <path
           inkscape:connector-curvature="0"
           style="fill:#000000;fill-opacity:0.5;fill-rule:evenodd;stroke:none;stroke-width:0.13007716pt;stroke-linecap:butt;stroke-linejoin:miter;stroke-opacity:1"
           sodipodi:nodetypes="ccc"
           id="path868"
           d="m 105.66708,129.1588 c 0.0241,-0.72745 1.59344,-2.57463 3.78846,-2.15119 -0.53727,1.41033 -1.23642,3.42721 -3.78846,2.15119 z" />
      </g>
    </g>
  </g>
</svg>
